<?xml version="1.0" encoding="us-ascii" standalone="no"?><svg xmlns="http://www.w3.org/2000/svg" xmlns:xlink="http://www.w3.org/1999/xlink" contentStyleType="text/css" height="547px" preserveAspectRatio="none" style="width:608px;height:547px;background:#FFFFFF;" version="1.1" viewBox="0 0 608 547" width="608px" zoomAndPan="magnify"><defs/><g><rect fill="#FFFFFF" height="426.6641" style="stroke:#181818;stroke-width:1.0;" width="10" x="308" y="67.4297"/><rect fill="#FFFFFF" height="29.1328" style="stroke:#181818;stroke-width:1.0;" width="10" x="406" y="290.4922"/><rect fill="#FFFFFF" height="29.1328" style="stroke:#181818;stroke-width:1.0;" width="10" x="525" y="363.5625"/><rect fill="none" height="296.1328" style="stroke:#000000;stroke-width:1.5;" width="592" x="10" y="169.8281"/><rect fill="none" height="148.4688" style="stroke:#000000;stroke-width:1.5;" width="572" x="20" y="252.2266"/><line style="stroke:#181818;stroke-width:0.5;stroke-dasharray:5.0,5.0;" x1="65" x2="65" y1="36.2969" y2="512.0938"/><line style="stroke:#181818;stroke-width:0.5;stroke-dasharray:5.0,5.0;" x1="313" x2="313" y1="36.2969" y2="512.0938"/><line style="stroke:#181818;stroke-width:0.5;stroke-dasharray:5.0,5.0;" x1="411" x2="411" y1="36.2969" y2="512.0938"/><line style="stroke:#181818;stroke-width:0.5;stroke-dasharray:5.0,5.0;" x1="530" x2="530" y1="36.2969" y2="512.0938"/><rect fill="#E2E2F0" height="30.2969" rx="2.5" ry="2.5" style="stroke:#181818;stroke-width:0.5;" width="70" x="30" y="5"/><text fill="#000000" font-family="sans-serif" font-size="14" lengthAdjust="spacing" textLength="56" x="37" y="24.9951">&#1057;&#1082;&#1088;&#1080;&#1087;&#1090;</text><rect fill="#E2E2F0" height="30.2969" rx="2.5" ry="2.5" style="stroke:#181818;stroke-width:0.5;" width="70" x="30" y="511.0938"/><text fill="#000000" font-family="sans-serif" font-size="14" lengthAdjust="spacing" textLength="56" x="37" y="531.0889">&#1057;&#1082;&#1088;&#1080;&#1087;&#1090;</text><rect fill="#E2E2F0" height="30.2969" rx="2.5" ry="2.5" style="stroke:#181818;stroke-width:0.5;" width="62" x="282" y="5"/><text fill="#000000" font-family="sans-serif" font-size="14" lengthAdjust="spacing" textLength="48" x="289" y="24.9951">SQLite</text><rect fill="#E2E2F0" height="30.2969" rx="2.5" ry="2.5" style="stroke:#181818;stroke-width:0.5;" width="62" x="282" y="511.0938"/><text fill="#000000" font-family="sans-serif" font-size="14" lengthAdjust="spacing" textLength="48" x="289" y="531.0889">SQLite</text><rect fill="#E2E2F0" height="30.2969" rx="2.5" ry="2.5" style="stroke:#181818;stroke-width:0.5;" width="114" x="354" y="5"/><text fill="#000000" font-family="sans-serif" font-size="14" lengthAdjust="spacing" textLength="100" x="361" y="24.9951">API &#1087;&#1077;&#1088;&#1077;&#1074;&#1086;&#1076;&#1072;</text><rect fill="#E2E2F0" height="30.2969" rx="2.5" ry="2.5" style="stroke:#181818;stroke-width:0.5;" width="114" x="354" y="511.0938"/><text fill="#000000" font-family="sans-serif" font-size="14" lengthAdjust="spacing" textLength="100" x="361" y="531.0889">API &#1087;&#1077;&#1088;&#1077;&#1074;&#1086;&#1076;&#1072;</text><rect fill="#E2E2F0" height="30.2969" rx="2.5" ry="2.5" style="stroke:#181818;stroke-width:0.5;" width="104" x="478" y="5"/><text fill="#000000" font-family="sans-serif" font-size="14" lengthAdjust="spacing" textLength="90" x="485" y="24.9951">ChatGPT API</text><rect fill="#E2E2F0" height="30.2969" rx="2.5" ry="2.5" style="stroke:#181818;stroke-width:0.5;" width="104" x="478" y="511.0938"/><text fill="#000000" font-family="sans-serif" font-size="14" lengthAdjust="spacing" textLength="90" x="485" y="531.0889">ChatGPT API</text><rect fill="#FFFFFF" height="426.6641" style="stroke:#181818;stroke-width:1.0;" width="10" x="308" y="67.4297"/><rect fill="#FFFFFF" height="29.1328" style="stroke:#181818;stroke-width:1.0;" width="10" x="406" y="290.4922"/><rect fill="#FFFFFF" height="29.1328" style="stroke:#181818;stroke-width:1.0;" width="10" x="525" y="363.5625"/><polygon fill="#181818" points="296,63.4297,306,67.4297,296,71.4297,300,67.4297" style="stroke:#181818;stroke-width:1.0;"/><line style="stroke:#181818;stroke-width:1.0;" x1="65" x2="302" y1="67.4297" y2="67.4297"/><text fill="#000000" font-family="sans-serif" font-size="13" lengthAdjust="spacing" textLength="117" x="72" y="62.3638">&#1057;&#1086;&#1079;&#1076;&#1072;&#1090;&#1100; &#1090;&#1072;&#1073;&#1083;&#1080;&#1094;&#1091;</text><line style="stroke:#181818;stroke-width:1.0;" x1="66" x2="76" y1="96.5625" y2="92.5625"/><line style="stroke:#181818;stroke-width:1.0;" x1="66" x2="76" y1="96.5625" y2="100.5625"/><line style="stroke:#181818;stroke-width:1.0;stroke-dasharray:2.0,2.0;" x1="65" x2="307" y1="96.5625" y2="96.5625"/><text fill="#000000" font-family="sans-serif" font-size="13" lengthAdjust="spacing" textLength="110" x="82" y="91.4966">&#1055;&#1086;&#1076;&#1090;&#1074;&#1077;&#1088;&#1078;&#1076;&#1077;&#1085;&#1080;&#1077;</text><polygon fill="#181818" points="296,121.6953,306,125.6953,296,129.6953,300,125.6953" style="stroke:#181818;stroke-width:1.0;"/><line style="stroke:#181818;stroke-width:1.0;" x1="65" x2="302" y1="125.6953" y2="125.6953"/><text fill="#000000" font-family="sans-serif" font-size="13" lengthAdjust="spacing" textLength="219" x="72" y="120.6294">&#1047;&#1072;&#1075;&#1088;&#1091;&#1079;&#1080;&#1090;&#1100; &#1080;&#1079;&#1085;&#1072;&#1095;&#1072;&#1083;&#1100;&#1085;&#1099;&#1081; &#1076;&#1072;&#1090;&#1072;&#1089;&#1077;&#1090;</text><line style="stroke:#181818;stroke-width:1.0;" x1="66" x2="76" y1="154.8281" y2="150.8281"/><line style="stroke:#181818;stroke-width:1.0;" x1="66" x2="76" y1="154.8281" y2="158.8281"/><line style="stroke:#181818;stroke-width:1.0;stroke-dasharray:2.0,2.0;" x1="65" x2="307" y1="154.8281" y2="154.8281"/><text fill="#000000" font-family="sans-serif" font-size="13" lengthAdjust="spacing" textLength="110" x="82" y="149.7622">&#1055;&#1086;&#1076;&#1090;&#1074;&#1077;&#1088;&#1078;&#1076;&#1077;&#1085;&#1080;&#1077;</text><path d="M10,169.8281 L88,169.8281 L88,176.9609 L78,186.9609 L10,186.9609 L10,169.8281 " fill="#EEEEEE" style="stroke:#000000;stroke-width:1.5;"/><rect fill="none" height="296.1328" style="stroke:#000000;stroke-width:1.5;" width="592" x="10" y="169.8281"/><text fill="#000000" font-family="sans-serif" font-size="13" font-weight="bold" lengthAdjust="spacing" textLength="33" x="25" y="182.895">loop</text><text fill="#000000" font-family="sans-serif" font-size="11" font-weight="bold" lengthAdjust="spacing" textLength="181" x="103" y="182.0386">[&#1044;&#1083;&#1103; &#1082;&#1072;&#1078;&#1076;&#1086;&#1081; &#1089;&#1090;&#1088;&#1086;&#1082;&#1080; &#1074; &#1041;&#1044;]</text><polygon fill="#181818" points="296,204.0938,306,208.0938,296,212.0938,300,208.0938" style="stroke:#181818;stroke-width:1.0;"/><line style="stroke:#181818;stroke-width:1.0;" x1="65" x2="302" y1="208.0938" y2="208.0938"/><text fill="#000000" font-family="sans-serif" font-size="13" lengthAdjust="spacing" textLength="112" x="72" y="203.0278">&#1055;&#1086;&#1083;&#1091;&#1095;&#1080;&#1090;&#1100; &#1079;&#1072;&#1087;&#1080;&#1089;&#1100;</text><line style="stroke:#181818;stroke-width:1.0;" x1="66" x2="76" y1="237.2266" y2="233.2266"/><line style="stroke:#181818;stroke-width:1.0;" x1="66" x2="76" y1="237.2266" y2="241.2266"/><line style="stroke:#181818;stroke-width:1.0;stroke-dasharray:2.0,2.0;" x1="65" x2="307" y1="237.2266" y2="237.2266"/><text fill="#000000" font-family="sans-serif" font-size="13" lengthAdjust="spacing" textLength="80" x="82" y="232.1606">&#1047;&#1072;&#1087;&#1080;&#1089;&#1100; &#1074; &#1041;&#1044;</text><path d="M20,252.2266 L86,252.2266 L86,259.3594 L76,269.3594 L20,269.3594 L20,252.2266 " fill="#EEEEEE" style="stroke:#000000;stroke-width:1.5;"/><rect fill="none" height="148.4688" style="stroke:#000000;stroke-width:1.5;" width="572" x="20" y="252.2266"/><text fill="#000000" font-family="sans-serif" font-size="13" font-weight="bold" lengthAdjust="spacing" textLength="21" x="35" y="265.2935">alt</text><text fill="#000000" font-family="sans-serif" font-size="11" font-weight="bold" lengthAdjust="spacing" textLength="300" x="101" y="264.437">[&#1055;&#1077;&#1088;&#1077;&#1074;&#1086;&#1076; &#1089; &#1087;&#1086;&#1084;&#1086;&#1097;&#1100;&#1102; API &#1089;&#1077;&#1088;&#1074;&#1080;&#1089;&#1072; &#1087;&#1077;&#1088;&#1077;&#1074;&#1086;&#1076;&#1072;]</text><polygon fill="#181818" points="394,286.4922,404,290.4922,394,294.4922,398,290.4922" style="stroke:#181818;stroke-width:1.0;"/><line style="stroke:#181818;stroke-width:1.0;" x1="65" x2="400" y1="290.4922" y2="290.4922"/><text fill="#000000" font-family="sans-serif" font-size="13" lengthAdjust="spacing" textLength="137" x="72" y="285.4263">&#1058;&#1077;&#1082;&#1089;&#1090; &#1076;&#1083;&#1103; &#1087;&#1077;&#1088;&#1077;&#1074;&#1086;&#1076;&#1072;</text><line style="stroke:#181818;stroke-width:1.0;" x1="66" x2="76" y1="319.625" y2="315.625"/><line style="stroke:#181818;stroke-width:1.0;" x1="66" x2="76" y1="319.625" y2="323.625"/><line style="stroke:#181818;stroke-width:1.0;stroke-dasharray:2.0,2.0;" x1="65" x2="410" y1="319.625" y2="319.625"/><text fill="#000000" font-family="sans-serif" font-size="13" lengthAdjust="spacing" textLength="141" x="82" y="314.5591">&#1055;&#1077;&#1088;&#1077;&#1074;&#1077;&#1076;&#1105;&#1085;&#1085;&#1099;&#1081; &#1090;&#1077;&#1082;&#1089;&#1090;</text><line style="stroke:#000000;stroke-width:1.0;stroke-dasharray:2.0,2.0;" x1="20" x2="592" y1="328.625" y2="328.625"/><text fill="#000000" font-family="sans-serif" font-size="11" font-weight="bold" lengthAdjust="spacing" textLength="251" x="25" y="338.8354">[&#1055;&#1077;&#1088;&#1077;&#1074;&#1077;&#1089;&#1090;&#1080; &#1089; &#1087;&#1086;&#1084;&#1086;&#1097;&#1100;&#1102; ChatGPT API]</text><polygon fill="#181818" points="513,359.5625,523,363.5625,513,367.5625,517,363.5625" style="stroke:#181818;stroke-width:1.0;"/><line style="stroke:#181818;stroke-width:1.0;" x1="65" x2="519" y1="363.5625" y2="363.5625"/><text fill="#000000" font-family="sans-serif" font-size="13" lengthAdjust="spacing" textLength="146" x="72" y="358.4966">&#1047;&#1072;&#1087;&#1088;&#1086;&#1089; &#1076;&#1083;&#1103; &#1087;&#1077;&#1088;&#1077;&#1074;&#1086;&#1076;&#1072;</text><line style="stroke:#181818;stroke-width:1.0;" x1="66" x2="76" y1="392.6953" y2="388.6953"/><line style="stroke:#181818;stroke-width:1.0;" x1="66" x2="76" y1="392.6953" y2="396.6953"/><line style="stroke:#181818;stroke-width:1.0;stroke-dasharray:2.0,2.0;" x1="65" x2="529" y1="392.6953" y2="392.6953"/><text fill="#000000" font-family="sans-serif" font-size="13" lengthAdjust="spacing" textLength="141" x="82" y="387.6294">&#1055;&#1077;&#1088;&#1077;&#1074;&#1077;&#1076;&#1105;&#1085;&#1085;&#1099;&#1081; &#1090;&#1077;&#1082;&#1089;&#1090;</text><polygon fill="#181818" points="296,424.8281,306,428.8281,296,432.8281,300,428.8281" style="stroke:#181818;stroke-width:1.0;"/><line style="stroke:#181818;stroke-width:1.0;" x1="65" x2="302" y1="428.8281" y2="428.8281"/><text fill="#000000" font-family="sans-serif" font-size="13" lengthAdjust="spacing" textLength="168" x="72" y="423.7622">&#1054;&#1073;&#1085;&#1086;&#1074;&#1080;&#1090;&#1100; &#1087;&#1086;&#1083;&#1103; &#1087;&#1077;&#1088;&#1077;&#1074;&#1086;&#1076;&#1072;</text><line style="stroke:#181818;stroke-width:1.0;" x1="66" x2="76" y1="457.9609" y2="453.9609"/><line style="stroke:#181818;stroke-width:1.0;" x1="66" x2="76" y1="457.9609" y2="461.9609"/><line style="stroke:#181818;stroke-width:1.0;stroke-dasharray:2.0,2.0;" x1="65" x2="307" y1="457.9609" y2="457.9609"/><text fill="#000000" font-family="sans-serif" font-size="13" lengthAdjust="spacing" textLength="110" x="82" y="452.895">&#1055;&#1086;&#1076;&#1090;&#1074;&#1077;&#1088;&#1078;&#1076;&#1077;&#1085;&#1080;&#1077;</text><line style="stroke:#181818;stroke-width:1.0;" x1="311" x2="301" y1="494.0938" y2="490.0938"/><line style="stroke:#181818;stroke-width:1.0;" x1="311" x2="301" y1="494.0938" y2="498.0938"/><line style="stroke:#181818;stroke-width:1.0;stroke-dasharray:2.0,2.0;" x1="65" x2="312" y1="494.0938" y2="494.0938"/><text fill="#000000" font-family="sans-serif" font-size="13" lengthAdjust="spacing" textLength="141" x="72" y="489.0278">&#1047;&#1072;&#1082;&#1088;&#1099;&#1090;&#1100; &#1089;&#1086;&#1077;&#1076;&#1080;&#1085;&#1077;&#1085;&#1080;&#1077;</text><!--SRC=[hLHBQi9G59rd5G_dRg03eLOeXHOiTWD10ms81WqT9mejnT0Y2CvQsXNOjAbMQzp2lJlgkIyc_i510vBFFUVSSpzFnsovTjLsp8QhSlH6K_PeGWlkv9JPLfLgotPSfGnd7LQvlhHTImDAnStGQVb2qO8Yg4GKKanVDD9013QHPxUcUrw-aO06N3LhLjqmbXdp1KYVA1YAQImYtE50SOT6z44pcl0zTmspwjftfck9Yr8ndoyK4ZPuhv8Qy51R-OP2H7CK5cqd64Bnaptk8ir49m5g3Eo87n2QSK1pxj6FIapWvqEoStm-ezviEee6a7fMD8McH6Ceiezy7XwdD54KAkhJm52ujYoAzeoxyBCqE8R80Yy-1ng_vMMu2cUo6cVMNL5R6muyoBXY-gMO7pdW9vc7qZLwW424HZi3rMARHi52vdTWfbAMT4lNUuYPZKxs8ls8vwscfkG8pUsZeSaeqETbdenQitOKhNhRsj0G0ZgzM_BQAkufJIzcsbQPbmWSMrworUbd_VOF9QvKhKPDt_VjpGkEoXp6mdHl5dgH3jW-Ug4bvV8K2ICxHVZdu5voJ7sGKG_WyuosPhzK_0C0]--></g></svg>