<?xml version="1.0" encoding="us-ascii" standalone="no"?><svg xmlns="http://www.w3.org/2000/svg" xmlns:xlink="http://www.w3.org/1999/xlink" contentStyleType="text/css" height="547px" preserveAspectRatio="none" style="width:528px;height:547px;background:#FFFFFF;" version="1.1" viewBox="0 0 528 547" width="528px" zoomAndPan="magnify"><defs/><g><rect fill="#FFFFFF" height="426.6641" style="stroke:#181818;stroke-width:1.0;" width="10" x="201" y="67.4297"/><rect fill="#FFFFFF" height="29.1328" style="stroke:#181818;stroke-width:1.0;" width="10" x="302.5" y="290.4922"/><rect fill="#FFFFFF" height="29.1328" style="stroke:#181818;stroke-width:1.0;" width="10" x="435" y="363.5625"/><rect fill="none" height="296.1328" style="stroke:#000000;stroke-width:1.5;" width="512" x="10" y="169.8281"/><rect fill="none" height="148.4688" style="stroke:#000000;stroke-width:1.5;" width="492" x="20" y="252.2266"/><line style="stroke:#181818;stroke-width:0.5;stroke-dasharray:5.0,5.0;" x1="59" x2="59" y1="36.2969" y2="512.0938"/><line style="stroke:#181818;stroke-width:0.5;stroke-dasharray:5.0,5.0;" x1="206" x2="206" y1="36.2969" y2="512.0938"/><line style="stroke:#181818;stroke-width:0.5;stroke-dasharray:5.0,5.0;" x1="307" x2="307" y1="36.2969" y2="512.0938"/><line style="stroke:#181818;stroke-width:0.5;stroke-dasharray:5.0,5.0;" x1="440" x2="440" y1="36.2969" y2="512.0938"/><rect fill="#E2E2F0" height="30.2969" rx="2.5" ry="2.5" style="stroke:#181818;stroke-width:0.5;" width="58" x="30" y="5"/><text fill="#000000" font-family="sans-serif" font-size="14" lengthAdjust="spacing" textLength="44" x="37" y="24.9951">Script</text><rect fill="#E2E2F0" height="30.2969" rx="2.5" ry="2.5" style="stroke:#181818;stroke-width:0.5;" width="58" x="30" y="511.0938"/><text fill="#000000" font-family="sans-serif" font-size="14" lengthAdjust="spacing" textLength="44" x="37" y="531.0889">Script</text><rect fill="#E2E2F0" height="30.2969" rx="2.5" ry="2.5" style="stroke:#181818;stroke-width:0.5;" width="62" x="175" y="5"/><text fill="#000000" font-family="sans-serif" font-size="14" lengthAdjust="spacing" textLength="48" x="182" y="24.9951">SQLite</text><rect fill="#E2E2F0" height="30.2969" rx="2.5" ry="2.5" style="stroke:#181818;stroke-width:0.5;" width="62" x="175" y="511.0938"/><text fill="#000000" font-family="sans-serif" font-size="14" lengthAdjust="spacing" textLength="48" x="182" y="531.0889">SQLite</text><rect fill="#E2E2F0" height="30.2969" rx="2.5" ry="2.5" style="stroke:#181818;stroke-width:0.5;" width="121" x="247" y="5"/><text fill="#000000" font-family="sans-serif" font-size="14" lengthAdjust="spacing" textLength="107" x="254" y="24.9951">Translation API</text><rect fill="#E2E2F0" height="30.2969" rx="2.5" ry="2.5" style="stroke:#181818;stroke-width:0.5;" width="121" x="247" y="511.0938"/><text fill="#000000" font-family="sans-serif" font-size="14" lengthAdjust="spacing" textLength="107" x="254" y="531.0889">Translation API</text><rect fill="#E2E2F0" height="30.2969" rx="2.5" ry="2.5" style="stroke:#181818;stroke-width:0.5;" width="124" x="378" y="5"/><text fill="#000000" font-family="sans-serif" font-size="14" lengthAdjust="spacing" textLength="110" x="385" y="24.9951">ChatGPT Model</text><rect fill="#E2E2F0" height="30.2969" rx="2.5" ry="2.5" style="stroke:#181818;stroke-width:0.5;" width="124" x="378" y="511.0938"/><text fill="#000000" font-family="sans-serif" font-size="14" lengthAdjust="spacing" textLength="110" x="385" y="531.0889">ChatGPT Model</text><rect fill="#FFFFFF" height="426.6641" style="stroke:#181818;stroke-width:1.0;" width="10" x="201" y="67.4297"/><rect fill="#FFFFFF" height="29.1328" style="stroke:#181818;stroke-width:1.0;" width="10" x="302.5" y="290.4922"/><rect fill="#FFFFFF" height="29.1328" style="stroke:#181818;stroke-width:1.0;" width="10" x="435" y="363.5625"/><polygon fill="#181818" points="189,63.4297,199,67.4297,189,71.4297,193,67.4297" style="stroke:#181818;stroke-width:1.0;"/><line style="stroke:#181818;stroke-width:1.0;" x1="59" x2="195" y1="67.4297" y2="67.4297"/><text fill="#000000" font-family="sans-serif" font-size="13" lengthAdjust="spacing" textLength="79" x="66" y="62.3638">Create table</text><line style="stroke:#181818;stroke-width:1.0;" x1="60" x2="70" y1="96.5625" y2="92.5625"/><line style="stroke:#181818;stroke-width:1.0;" x1="60" x2="70" y1="96.5625" y2="100.5625"/><line style="stroke:#181818;stroke-width:1.0;stroke-dasharray:2.0,2.0;" x1="59" x2="200" y1="96.5625" y2="96.5625"/><text fill="#000000" font-family="sans-serif" font-size="13" lengthAdjust="spacing" textLength="51" x="76" y="91.4966">Confirm</text><polygon fill="#181818" points="189,121.6953,199,125.6953,189,129.6953,193,125.6953" style="stroke:#181818;stroke-width:1.0;"/><line style="stroke:#181818;stroke-width:1.0;" x1="59" x2="195" y1="125.6953" y2="125.6953"/><text fill="#000000" font-family="sans-serif" font-size="13" lengthAdjust="spacing" textLength="117" x="66" y="120.6294">Load dataset data</text><line style="stroke:#181818;stroke-width:1.0;" x1="60" x2="70" y1="154.8281" y2="150.8281"/><line style="stroke:#181818;stroke-width:1.0;" x1="60" x2="70" y1="154.8281" y2="158.8281"/><line style="stroke:#181818;stroke-width:1.0;stroke-dasharray:2.0,2.0;" x1="59" x2="200" y1="154.8281" y2="154.8281"/><text fill="#000000" font-family="sans-serif" font-size="13" lengthAdjust="spacing" textLength="51" x="76" y="149.7622">Confirm</text><path d="M10,169.8281 L88,169.8281 L88,176.9609 L78,186.9609 L10,186.9609 L10,169.8281 " fill="#EEEEEE" style="stroke:#000000;stroke-width:1.5;"/><rect fill="none" height="296.1328" style="stroke:#000000;stroke-width:1.5;" width="512" x="10" y="169.8281"/><text fill="#000000" font-family="sans-serif" font-size="13" font-weight="bold" lengthAdjust="spacing" textLength="33" x="25" y="182.895">loop</text><text fill="#000000" font-family="sans-serif" font-size="11" font-weight="bold" lengthAdjust="spacing" textLength="96" x="103" y="182.0386">[For each row]</text><polygon fill="#181818" points="189,204.0938,199,208.0938,189,212.0938,193,208.0938" style="stroke:#181818;stroke-width:1.0;"/><line style="stroke:#181818;stroke-width:1.0;" x1="59" x2="195" y1="208.0938" y2="208.0938"/><text fill="#000000" font-family="sans-serif" font-size="13" lengthAdjust="spacing" textLength="51" x="66" y="203.0278">Get row</text><line style="stroke:#181818;stroke-width:1.0;" x1="60" x2="70" y1="237.2266" y2="233.2266"/><line style="stroke:#181818;stroke-width:1.0;" x1="60" x2="70" y1="237.2266" y2="241.2266"/><line style="stroke:#181818;stroke-width:1.0;stroke-dasharray:2.0,2.0;" x1="59" x2="200" y1="237.2266" y2="237.2266"/><text fill="#000000" font-family="sans-serif" font-size="13" lengthAdjust="spacing" textLength="71" x="76" y="232.1606">Return row</text><path d="M20,252.2266 L86,252.2266 L86,259.3594 L76,269.3594 L20,269.3594 L20,252.2266 " fill="#EEEEEE" style="stroke:#000000;stroke-width:1.5;"/><rect fill="none" height="148.4688" style="stroke:#000000;stroke-width:1.5;" width="492" x="20" y="252.2266"/><text fill="#000000" font-family="sans-serif" font-size="13" font-weight="bold" lengthAdjust="spacing" textLength="21" x="35" y="265.2935">alt</text><text fill="#000000" font-family="sans-serif" font-size="11" font-weight="bold" lengthAdjust="spacing" textLength="134" x="101" y="264.437">[Translate with API]</text><polygon fill="#181818" points="290.5,286.4922,300.5,290.4922,290.5,294.4922,294.5,290.4922" style="stroke:#181818;stroke-width:1.0;"/><line style="stroke:#181818;stroke-width:1.0;" x1="59" x2="296.5" y1="290.4922" y2="290.4922"/><text fill="#000000" font-family="sans-serif" font-size="13" lengthAdjust="spacing" textLength="90" x="66" y="285.4263">Translate text</text><line style="stroke:#181818;stroke-width:1.0;" x1="60" x2="70" y1="319.625" y2="315.625"/><line style="stroke:#181818;stroke-width:1.0;" x1="60" x2="70" y1="319.625" y2="323.625"/><line style="stroke:#181818;stroke-width:1.0;stroke-dasharray:2.0,2.0;" x1="59" x2="306.5" y1="319.625" y2="319.625"/><text fill="#000000" font-family="sans-serif" font-size="13" lengthAdjust="spacing" textLength="98" x="76" y="314.5591">Translated text</text><line style="stroke:#000000;stroke-width:1.0;stroke-dasharray:2.0,2.0;" x1="20" x2="512" y1="328.625" y2="328.625"/><text fill="#000000" font-family="sans-serif" font-size="11" font-weight="bold" lengthAdjust="spacing" textLength="172" x="25" y="338.8354">[Translate with ChatGPT]</text><polygon fill="#181818" points="423,359.5625,433,363.5625,423,367.5625,427,363.5625" style="stroke:#181818;stroke-width:1.0;"/><line style="stroke:#181818;stroke-width:1.0;" x1="59" x2="429" y1="363.5625" y2="363.5625"/><text fill="#000000" font-family="sans-serif" font-size="13" lengthAdjust="spacing" textLength="124" x="66" y="358.4966">Translation request</text><line style="stroke:#181818;stroke-width:1.0;" x1="60" x2="70" y1="392.6953" y2="388.6953"/><line style="stroke:#181818;stroke-width:1.0;" x1="60" x2="70" y1="392.6953" y2="396.6953"/><line style="stroke:#181818;stroke-width:1.0;stroke-dasharray:2.0,2.0;" x1="59" x2="439" y1="392.6953" y2="392.6953"/><text fill="#000000" font-family="sans-serif" font-size="13" lengthAdjust="spacing" textLength="98" x="76" y="387.6294">Translated text</text><polygon fill="#181818" points="189,424.8281,199,428.8281,189,432.8281,193,428.8281" style="stroke:#181818;stroke-width:1.0;"/><line style="stroke:#181818;stroke-width:1.0;" x1="59" x2="195" y1="428.8281" y2="428.8281"/><text fill="#000000" font-family="sans-serif" font-size="13" lengthAdjust="spacing" textLength="118" x="66" y="423.7622">Update translation</text><line style="stroke:#181818;stroke-width:1.0;" x1="60" x2="70" y1="457.9609" y2="453.9609"/><line style="stroke:#181818;stroke-width:1.0;" x1="60" x2="70" y1="457.9609" y2="461.9609"/><line style="stroke:#181818;stroke-width:1.0;stroke-dasharray:2.0,2.0;" x1="59" x2="200" y1="457.9609" y2="457.9609"/><text fill="#000000" font-family="sans-serif" font-size="13" lengthAdjust="spacing" textLength="51" x="76" y="452.895">Confirm</text><line style="stroke:#181818;stroke-width:1.0;" x1="204" x2="194" y1="494.0938" y2="490.0938"/><line style="stroke:#181818;stroke-width:1.0;" x1="204" x2="194" y1="494.0938" y2="498.0938"/><line style="stroke:#181818;stroke-width:1.0;stroke-dasharray:2.0,2.0;" x1="59" x2="205" y1="494.0938" y2="494.0938"/><text fill="#000000" font-family="sans-serif" font-size="13" lengthAdjust="spacing" textLength="109" x="66" y="489.0278">Close connection</text><!--SRC=[bLBBJWCn3BplLrYzxm_qK8djYWgfI0NA1vZ4Q2E596HTokUJzJvJbWEvE8bdneud0ICRPG8wXisBYYRm1h25VWjGX0pmT3HC0gYhF7MEw5gBRBo3kzE3O5BCGVi6-N0wmwFNP0KYkw8OofMxfBk5VIHa0iOtImKgDb_TCLMigxBSxNfmWddtRkB73VdeKOD6nfPOuX-imdeVuDv785GDH7yj8ArSx90qnamkyqnyYKwIaaNBCCw0u6guaUV3i6RPTBjT89c-UK9DRrrIqtvPUABgdAlf5vjiIxTD3HQiD2PMpFgTaP4-BzIkzDVRDbxBwPyzpWhajCILyRy6BJEQMrfnOZIqqnd-GfUMZsHzce3opf4IzgA1kle1]--></g></svg>